<?xml version="1.0" standalone="no"?>
<!DOCTYPE svg PUBLIC "-//W3C//DTD SVG 20010904//EN"
 "http://www.w3.org/TR/2001/REC-SVG-20010904/DTD/svg10.dtd">
<svg version="1.0" xmlns="http://www.w3.org/2000/svg"
 width="64.000000pt" height="64.000000pt" viewBox="0 0 64.000000 64.000000"
 preserveAspectRatio="xMidYMid meet">

<g transform="translate(0.000000,64.000000) scale(0.100000,-0.100000)"
fill="#000000" stroke="none">
<path d="M33 622 c-29 -18 -43 -108 -21 -130 17 -17 599 -17 616 0 22 22 8
112 -21 130 -16 10 -558 10 -574 0z m85 -64 c-3 -7 -11 -13 -18 -13 -7 0 -15
6 -17 13 -3 7 4 12 17 12 13 0 20 -5 18 -12z m80 0 c-3 -7 -11 -13 -18 -13 -7
0 -15 6 -17 13 -3 7 4 12 17 12 13 0 20 -5 18 -12z m360 0 c-3 -9 -31 -13 -93
-13 -62 0 -90 4 -92 13 -4 9 19 12 92 12 73 0 96 -3 93 -12z"/>
<path d="M7 443 c-11 -11 -8 -357 4 -391 7 -20 21 -34 41 -41 42 -15 495 -15
536 0 46 16 54 54 50 259 l-3 175 -311 3 c-171 1 -313 -1 -317 -5z m231 -79
c42 -29 18 -104 -34 -104 -52 0 -75 74 -32 104 12 9 27 16 33 16 6 0 21 -7 33
-16z m293 -121 c77 -75 79 -78 79 -125 0 -35 -6 -54 -20 -68 -19 -19 -33 -20
-266 -20 -150 0 -253 4 -265 10 -15 9 -19 22 -19 68 0 32 5 63 12 70 23 23 66
13 107 -23 21 -19 42 -35 47 -35 4 0 54 45 109 100 56 55 110 100 120 100 9 0
53 -35 96 -77z"/>
</g>
</svg>
