<?xml version="1.0" standalone="no"?>
<!DOCTYPE svg PUBLIC "-//W3C//DTD SVG 20010904//EN"
 "http://www.w3.org/TR/2001/REC-SVG-20010904/DTD/svg10.dtd">
<svg version="1.0" xmlns="http://www.w3.org/2000/svg"
 width="64.000000pt" height="64.000000pt" viewBox="0 0 64.000000 64.000000"
 preserveAspectRatio="xMidYMid meet">

<g transform="translate(0.000000,64.000000) scale(0.100000,-0.100000)"
fill="#000000" stroke="none">
<path d="M33 622 c-27 -17 -33 -70 -33 -301 0 -273 4 -296 58 -311 55 -16 564
-9 570 8 3 9 -56 12 -273 12 -171 0 -284 4 -296 10 -18 10 -19 23 -19 215 l0
205 280 0 279 0 3 -57 c2 -44 7 -58 18 -58 12 0 16 19 18 95 2 52 0 109 -3
127 -12 64 -8 63 -313 63 -152 0 -282 -4 -289 -8z m565 -79 l3 -53 -280 0
-281 0 0 48 c0 27 3 52 7 55 4 4 128 6 277 5 l271 -3 3 -52z"/>
<path d="M83 548 c2 -7 10 -13 17 -13 7 0 15 6 18 13 2 7 -5 12 -18 12 -13 0
-20 -5 -17 -12z"/>
<path d="M163 548 c2 -7 10 -13 17 -13 7 0 15 6 18 13 2 7 -5 12 -18 12 -13 0
-20 -5 -17 -12z"/>
<path d="M156 374 c-20 -20 -20 -68 0 -88 20 -20 68 -20 88 0 20 20 20 68 0
88 -8 9 -28 16 -44 16 -16 0 -36 -7 -44 -16z m69 -44 c0 -18 -6 -26 -23 -28
-13 -2 -25 3 -28 12 -10 26 4 48 28 44 17 -2 23 -10 23 -28z"/>
<path d="M306 231 l-101 -99 -44 39 c-25 22 -51 38 -59 37 -19 -4 -28 -28 -11
-28 6 0 31 -18 55 -40 24 -22 49 -40 56 -40 6 0 58 45 113 100 58 57 110 100
121 100 11 0 55 -35 99 -80 53 -53 83 -76 89 -70 7 7 -18 39 -74 95 -113 114
-113 114 -244 -14z"/>
</g>
</svg>
